<?xml version="1.0" encoding="UTF-8" standalone="no"?>
<!-- Created with Inkscape (http://www.inkscape.org/) -->

<svg
   width="210mm"
   height="297mm"
   viewBox="0 0 210 297"
   version="1.1"
   id="svg9971"
   inkscape:version="1.1.1 (3bf5ae0d25, 2021-09-20)"
   sodipodi:docname="Ecuador.svg"
   xmlns:inkscape="http://www.inkscape.org/namespaces/inkscape"
   xmlns:sodipodi="http://sodipodi.sourceforge.net/DTD/sodipodi-0.dtd"
   xmlns="http://www.w3.org/2000/svg"
   xmlns:svg="http://www.w3.org/2000/svg">
  <sodipodi:namedview
     id="namedview9973"
     pagecolor="#505050"
     bordercolor="#eeeeee"
     borderopacity="1"
     inkscape:pageshadow="0"
     inkscape:pageopacity="0"
     inkscape:pagecheckerboard="0"
     inkscape:document-units="mm"
     showgrid="false"
     inkscape:zoom="0.57370932"
     inkscape:cx="390.44163"
     inkscape:cy="558.64527"
     inkscape:window-width="1904"
     inkscape:window-height="1041"
     inkscape:window-x="0"
     inkscape:window-y="0"
     inkscape:window-maximized="0"
     inkscape:current-layer="layer1" />
  <defs
     id="defs9968">
    <clipPath
       clipPathUnits="userSpaceOnUse"
       id="clipPath6028">
      <path
         style="fill:none;stroke:#000000;stroke-width:0.264583px;stroke-linecap:butt;stroke-linejoin:miter;stroke-opacity:1"
         d="m 189.14008,-260.88287 129.137,-12.39192 3.26107,-103.04875 -134.35469,2.60882 z"
         id="path6030"
         sodipodi:nodetypes="ccccc" />
    </clipPath>
    <clipPath
       clipPathUnits="userSpaceOnUse"
       id="clipPath28857">
      <path
         style="fill:none;stroke:#000000;stroke-width:0.264583px;stroke-linecap:butt;stroke-linejoin:miter;stroke-opacity:1"
         d="m -168.92166,-368.49706 65.22072,182.61802 -88.70018,-3.91325 -2.60883,-174.79153 z"
         id="path28859" />
    </clipPath>
    <clipPath
       clipPathUnits="userSpaceOnUse"
       id="clipath_lpe_path-effect195916">
      <path
         style="display:none;fill:none;stroke:#000000;stroke-width:0.264583px;stroke-linecap:butt;stroke-linejoin:miter;stroke-opacity:1"
         d="m 189.14008,-260.88287 129.137,-12.39192 3.26107,-103.04875 -134.35469,2.60882 z"
         id="path195939"
         sodipodi:nodetypes="ccccc" />
      <path
         id="lpe_path-effect195916"
         style="fill:none;stroke:#000000;stroke-width:0.264583px;stroke-linecap:butt;stroke-linejoin:miter;stroke-opacity:1"
         class="powerclip"
         d="m 195.41722,-368.38101 h 112.20671 v 155.97462 H 195.41722 Z m -6.27714,107.49814 129.137,-12.39192 3.26107,-103.04875 -134.35469,2.60882 z" />
    </clipPath>
    <inkscape:path-effect
       effect="powerclip"
       id="path-effect195916"
       is_visible="true"
       lpeversion="1"
       inverse="true"
       flatten="false"
       hide_clip="false"
       message="Utilice la regla de relleno parimpar en el diálogo &lt;b&gt;Relleno y borde&lt;/b&gt; si el resultado no está aplanada después de convertir el recorte en trayectos." />
    <clipPath
       clipPathUnits="userSpaceOnUse"
       id="clipath_lpe_path-effect195926">
      <g
         id="g195934"
         style="display:none;stroke-width:0.1;stroke-miterlimit:4;stroke-dasharray:none">
        <path
           style="fill:none;stroke:#000000;stroke-width:0.1;stroke-linecap:butt;stroke-linejoin:miter;stroke-miterlimit:4;stroke-dasharray:none;stroke-opacity:1"
           d="m -740.54048,-972.60396 -1.71204,-2.2012 -0.28536,-1.46745 0.89678,-1.05985 0.57068,-0.77448 0.93755,2.56804 0.89678,2.40504 0.32613,1.05981 -1.10062,-0.12229 z"
           id="path195928" />
        <path
           style="fill:none;stroke:#000000;stroke-width:0.1;stroke-linecap:butt;stroke-linejoin:miter;stroke-miterlimit:4;stroke-dasharray:none;stroke-opacity:1"
           d="m -740.4182,-978.82031 1.05985,3.24067 0.99866,2.95529 0.10194,-3.26102 -0.52992,-3.60752 -0.89681,-0.12229 z"
           id="path195930"
           sodipodi:nodetypes="ccccccc" />
        <path
           style="fill:none;stroke:#000000;stroke-width:0.1;stroke-linecap:butt;stroke-linejoin:miter;stroke-miterlimit:4;stroke-dasharray:none;stroke-opacity:1"
           d="m -737.70747,-976.76177 0.26497,-1.73243 0.81525,-2.7311 -0.79488,-0.48919 -0.59105,0.52994 -0.16307,1.10059 z"
           id="path195932"
           sodipodi:nodetypes="ccccccc" />
      </g>
      <path
         id="lpe_path-effect195926"
         style="stroke-width:0.1;stroke-miterlimit:4;stroke-dasharray:none"
         class="powerclip"
         d="m -755.36493,-1001.3474 h 31.32959 v 59.0552 h -31.32959 z m 14.82445,28.74344 0.5299,0.40762 1.10062,0.12229 -0.32613,-1.05981 -0.89678,-2.40504 -0.93755,-2.56804 -0.57068,0.77448 -0.89678,1.05985 0.28536,1.46745 z m 0.12228,-6.21635 1.05985,3.24067 0.99866,2.95529 0.10194,-3.26102 -0.52992,-3.60752 -0.89681,-0.12229 z m 2.71073,2.05854 0.26497,-1.73243 0.81525,-2.7311 -0.79488,-0.48919 -0.59105,0.52994 -0.16307,1.10059 z" />
    </clipPath>
    <inkscape:path-effect
       effect="powerclip"
       id="path-effect195926"
       is_visible="true"
       lpeversion="1"
       inverse="true"
       flatten="false"
       hide_clip="false"
       message="Utilice la regla de relleno parimpar en el diálogo &lt;b&gt;Relleno y borde&lt;/b&gt; si el resultado no está aplanada después de convertir el recorte en trayectos." />
    <clipPath
       clipPathUnits="userSpaceOnUse"
       id="clipPath1110">
      <path
         style="fill:none;stroke:#000000;stroke-width:0.264583px;stroke-linecap:butt;stroke-linejoin:miter;stroke-opacity:1"
         d="m 189.14008,-260.88287 129.137,-12.39192 3.26107,-103.04875 -134.35469,2.60882 z"
         id="path1108"
         sodipodi:nodetypes="ccccc" />
    </clipPath>
    <clipPath
       clipPathUnits="userSpaceOnUse"
       id="clipPath1114">
      <path
         style="fill:none;stroke:#000000;stroke-width:0.264583px;stroke-linecap:butt;stroke-linejoin:miter;stroke-opacity:1"
         d="m -168.92166,-368.49706 65.22072,182.61802 -88.70018,-3.91325 -2.60883,-174.79153 z"
         id="path1112" />
    </clipPath>
    <clipPath
       clipPathUnits="userSpaceOnUse"
       id="clipath_lpe_path-effect294735">
      <path
         style="display:none;fill:none;stroke:#000000;stroke-width:0.264583px;stroke-linecap:butt;stroke-linejoin:miter;stroke-opacity:1"
         d="m 189.14008,-260.88287 129.137,-12.39192 3.26107,-103.04875 -134.35469,2.60882 z"
         id="path294775"
         sodipodi:nodetypes="ccccc" />
      <path
         id="lpe_path-effect294735"
         style="fill:none;stroke:#000000;stroke-width:0.264583px;stroke-linecap:butt;stroke-linejoin:miter;stroke-opacity:1"
         class="powerclip"
         d="m 195.41722,-368.38101 h 112.20671 v 155.97462 H 195.41722 Z m -6.27714,107.49814 129.137,-12.39192 3.26107,-103.04875 -134.35469,2.60882 z" />
    </clipPath>
    <inkscape:path-effect
       effect="powerclip"
       id="path-effect294735"
       is_visible="true"
       lpeversion="1"
       inverse="true"
       flatten="false"
       hide_clip="false"
       message="Utilice la regla de relleno parimpar en el diálogo &lt;b&gt;Relleno y borde&lt;/b&gt; si el resultado no está aplanada después de convertir el recorte en trayectos." />
    <clipPath
       clipPathUnits="userSpaceOnUse"
       id="clipath_lpe_path-effect294739">
      <g
         id="g294770"
         style="display:none;stroke-width:0.1;stroke-miterlimit:4;stroke-dasharray:none">
        <path
           style="fill:none;stroke:#000000;stroke-width:0.1;stroke-linecap:butt;stroke-linejoin:miter;stroke-miterlimit:4;stroke-dasharray:none;stroke-opacity:1"
           d="m -740.54048,-972.60396 -1.71204,-2.2012 -0.28536,-1.46745 0.89678,-1.05985 0.57068,-0.77448 0.93755,2.56804 0.89678,2.40504 0.32613,1.05981 -1.10062,-0.12229 z"
           id="path294764" />
        <path
           style="fill:none;stroke:#000000;stroke-width:0.1;stroke-linecap:butt;stroke-linejoin:miter;stroke-miterlimit:4;stroke-dasharray:none;stroke-opacity:1"
           d="m -740.4182,-978.82031 1.05985,3.24067 0.99866,2.95529 0.10194,-3.26102 -0.52992,-3.60752 -0.89681,-0.12229 z"
           id="path294766"
           sodipodi:nodetypes="ccccccc" />
        <path
           style="fill:none;stroke:#000000;stroke-width:0.1;stroke-linecap:butt;stroke-linejoin:miter;stroke-miterlimit:4;stroke-dasharray:none;stroke-opacity:1"
           d="m -737.70747,-976.76177 0.26497,-1.73243 0.81525,-2.7311 -0.79488,-0.48919 -0.59105,0.52994 -0.16307,1.10059 z"
           id="path294768"
           sodipodi:nodetypes="ccccccc" />
      </g>
      <path
         id="lpe_path-effect294739"
         style="stroke-width:0.1;stroke-miterlimit:4;stroke-dasharray:none"
         class="powerclip"
         d="m -755.36493,-1001.3474 h 31.32959 v 59.0552 h -31.32959 z m 14.82445,28.74344 0.5299,0.40762 1.10062,0.12229 -0.32613,-1.05981 -0.89678,-2.40504 -0.93755,-2.56804 -0.57068,0.77448 -0.89678,1.05985 0.28536,1.46745 z m 0.12228,-6.21635 1.05985,3.24067 0.99866,2.95529 0.10194,-3.26102 -0.52992,-3.60752 -0.89681,-0.12229 z m 2.71073,2.05854 0.26497,-1.73243 0.81525,-2.7311 -0.79488,-0.48919 -0.59105,0.52994 -0.16307,1.10059 z" />
    </clipPath>
    <inkscape:path-effect
       effect="powerclip"
       id="path-effect294739"
       is_visible="true"
       lpeversion="1"
       inverse="true"
       flatten="false"
       hide_clip="false"
       message="Utilice la regla de relleno parimpar en el diálogo &lt;b&gt;Relleno y borde&lt;/b&gt; si el resultado no está aplanada después de convertir el recorte en trayectos." />
  </defs>
  <g
     inkscape:label="Capa 1"
     inkscape:groupmode="layer"
     id="layer1">
    <g
       id="g195958"
       transform="translate(586.71859,543.84576)"
       inkscape:export-filename="C:\Users\camid\Desktop\Ecuador\logo\logo.png"
       inkscape:export-xdpi="96"
       inkscape:export-ydpi="96">
      <rect
         style="fill:#e6e6e6;fill-opacity:1;stroke:none;stroke-width:1.37386;stroke-linejoin:round"
         id="rect5420"
         width="116.81965"
         height="166.84526"
         x="-674.53027"
         y="-576.53857"
         ry="5.2181997"
         rx="5.2181821" />
      <rect
         style="fill:#b7c8be;fill-opacity:1;stroke:none;stroke-width:1.202;stroke-linejoin:round"
         id="rect195902"
         width="102.20671"
         height="145.97462"
         x="200.41722"
         y="-363.38101"
         ry="4.5654564"
         rx="4.5654411"
         clip-path="url(#clipPath6028)"
         transform="translate(-867.64101,-202.72226)" />
      <rect
         style="fill:#e6e6e6;fill-opacity:1;stroke:none;stroke-width:1.202;stroke-linejoin:round"
         id="rect195904"
         width="102.20671"
         height="145.97462"
         x="-178.51517"
         y="-350.98907"
         ry="4.5654564"
         rx="4.5654411"
         clip-path="url(#clipPath28857)"
         transform="translate(-488.70862,-215.1142)" />
      <g
         id="g195910"
         transform="matrix(0.3375219,-0.02286517,0.02286517,0.3375219,-437.94281,-319.2755)"
         style="stroke:none">
        <path
           style="fill:#b7c8be;fill-opacity:1;stroke:none;stroke-width:0.264583px;stroke-linecap:butt;stroke-linejoin:miter;stroke-opacity:1"
           d="m -351.83588,-475.21316 -1.14136,-17.77266 -0.0561,-8.778 -2.2266,-7.8533 -26.08828,-5.7068 -19.56623,-5.7068 -18.58791,-2.2827 -43.86093,-7.8265 -17.44654,-0.6522 -35.17846,3.99446 -11.66925,5.10794 -3.96371,10.98075 -4.99873,12.51283 -6.63869,7.18862 -7.33732,8.6418 7.50038,26.5774 23.80557,14.67467 42.39345,0.97829 112.50575,-22.66418 z"
           id="path195906"
           sodipodi:nodetypes="cccccccccccccccccccc" />
        <path
           style="fill:#008080;fill-opacity:1;stroke:none;stroke-width:0.264583px;stroke-linecap:butt;stroke-linejoin:miter;stroke-opacity:1"
           d="m -645.95028,-470.3457 33.20499,-5.07296 41.96742,-11.52956 22.13663,-5.5342 16.1413,-6.9177 -2.3059,8.7625 7.84006,2.3059 -1.38354,15.21895 2.76709,9.22359 13.37422,-3.22826 7.37888,3.45887 6.45652,10.37654 2.99768,-9.68479 -0.69178,-13.8354 6.6871,3.45884 5.76477,5.30358 4.6118,-9.91537 v -8.53185 l 4.61179,-4.6118 3.68945,-6.6871 -3.68945,-3.9201 0.23061,-17.2942 3.68943,-3.4589 v -9.9154 l -2.53648,3.9201 -6.91772,6.4565 -6.22593,1.153 -2.53649,2.3059 -5.07298,-0.9224 -0.92237,-4.6118 -2.07528,-2.7671 -5.76477,2.3059 -4.38121,3.6895 -0.92237,7.6094 v 4.1507 l -3.68942,-8.0707 -0.69178,-6.2259 -3.92004,-1.3836 -1.84471,-0.9223 -2.5365,5.9953 -0.23059,3.92 -1.15295,7.3789 -0.23058,4.1507 -0.69178,10.1459 -1.8447,-2.7671 0.46117,-11.2989 -0.92237,-4.8424 -1.61411,-5.073 -0.92237,-4.6118 1.15295,-3.4588 1.15295,-2.5365 5.07299,-2.7671 1.38353,-4.3812 2.53648,-4.6118 4.15063,-2.5365 5.76476,-1.1529 6.91769,-0.9224 2.53648,1.6141 4.15063,-2.767 8.53183,-1.6142 6.91772,0.9224 3.45884,2.3059 4.84238,-0.2306 7.84008,-0.2306 5.30358,-0.9223 5.99532,1.6141 7.60947,3.6894 5.76477,3.2283 5.30357,-2.0753 1.15295,-4.1507 1.8447,-3.92 1.61414,-2.5365 1.15295,3.9201 2.53648,2.767 1.61415,3.6895 1.38353,0.4612 2.07531,-1.6142 0.46117,-2.0753 1.03767,-1.0376 0.34589,-1.7295 1.38353,-1.3835 h 1.03767 l 1.15295,-2.8824 1.15295,-0.6917 1.38353,-1.7295 1.38353,2.0753 1.03767,-0.2306 0.46117,2.6518 0.92237,1.0377 1.96,-1.96 1.72943,-0.1153 0.92236,1.3835 2.99768,-0.5765 0.80705,1.8448 1.61415,-0.4612 1.96,3.1129 1.84473,-1.0376 1.03765,1.7294 1.96003,1.0377 2.19059,2.1906 1.96003,2.1906 1.61412,0.2306 c 0,0 0.34589,1.2682 0.34589,2.0753 0,0.8071 0.11531,2.6518 0.11531,2.6518 h 1.96 l -1.49884,2.5365 0.46117,1.4988 2.7671,-0.5765 2.07531,-0.4612 2.76706,4.1507 2.53651,-0.4612 3.92001,2.3059 4.84241,1.8447 2.30589,-0.4612 4.15063,3.4589 c 0.29931,0.44425 0.59862,0.88851 0.89793,1.33276 l -0.5513,1.20969 -0.95062,2.13058 -0.31837,2.01407 -1.15295,3.92 -0.57648,5.5342 -0.12415,-8.78843 c -1.30047,-1.28934 -0.91835,-8.80313 -2.18174,3.83073 l 0.34589,-3.4589 0.11527,-1.4988 -1.8447,0.6918 c 0,0 -1.61414,1.6141 -1.84472,2.0753 -0.23059,0.4612 -2.19062,2.7671 -2.19062,2.7671 l 0.46119,2.7671 2.42121,0.5764 0.46116,1.96 -0.92236,2.6518 -0.69178,2.8824 v 2.3059 l 1.26825,4.8424 2.00909,2.0033 2.12269,2.72817 0.48002,3.3392 -0.80706,2.4212 3.474,-2.87747 2.44579,0.9783 2.77188,-0.48914 4.23934,3.91324 2.60884,5.7068 -9.1309,3.26104 -10.43533,4.23934 -23.15334,7.33735 -2.12766,-4.66145 1.18363,-5.7102 3.71591,-2.3464 -0.16306,-4.0763 3.7502,-3.91324 4.07628,0.3261 2.60884,-0.81526 0.81526,-2.93492 4.23934,-0.48916 -0.81526,-5.5438 0.3261,-15.1638 -0.48913,-5.3807 1.63049,-4.5655 v -2.9349 l -3.09798,-1.1414 -3.75018,0.8153 -3.58714,0.4892 1.14136,33.26253 -1.95662,-0.97833 -0.97832,-34.2409 -4.23934,1.7936 -5.3807,-1.6305 -2.44578,-0.6522 -2.28272,2.1196 -2.77188,-2.7719 -2.60885,-5.5437 -4.23934,-1.7936 -4.23934,1.4675 -1.14135,5.5437 -2.77189,1.6306 -1.46748,1.9566 -0.6522,20.3815 -1.30442,2.2827 0.48916,-21.0337 c 0,0 0.3261,-5.2177 0.3261,-5.8699 0,-0.6521 -1.30442,-4.4024 -1.30442,-4.4024 l -5.3807,1.7936 c 0,0 -5.3807,0.4892 -6.19596,0.3261 -0.81526,-0.163 -7.82648,-0.4891 -7.82648,-0.4891 h -2.60885 v 6.522 l -1.14136,7.3374 -0.97829,-9.457 0.97829,-8.1526 -4.23934,-0.9783 -3.58714,-0.1631 -5.70682,0.6522 -6.0329,1.3044 -3.91326,2.7719 -2.44576,7.6634 -0.32613,12.2289 2.11969,2.1197 1.79358,3.9133 3.42408,0.9783 1.79356,-3.4241 3.26104,1.7935 3.26104,0.1631 0.81526,-4.7285 3.26105,-1.9566 c 0,0 2.11965,-1.1414 2.28271,-1.7936 0.16304,-0.6522 1.14136,-2.6088 1.14136,-2.6088 l 2.93492,-0.3261 3.42411,3.5871 3.26104,3.4241 6.35899,3.5871 4.07631,5.2177 -1.79356,2.4458 -6.68512,-0.1631 -3.7502,1.6305 0.32609,4.8916 6.03293,10.2723 6.19596,0.6522 5.54376,-1.79358 5.86986,-1.3044 5.21766,-1.14136 3.42411,-0.81526 1.14136,-4.56546 -0.3261,-4.23934 1.63049,-1.4675 2.28275,-1.3044 2.11965,-3.2611 0.65223,-1.7935 2.44575,0.3261 1.14139,2.2827 1.46746,0.4892 2.60882,-0.8153 3.91324,1.3044 1.95662,3.4241 -1.95662,3.9133 -1.63052,2.77186 0.97832,3.58714 -0.3261,3.58714 0.16304,3.42408 -3.09798,3.098 -0.6522,5.86987 0.81526,3.09798 -10.76142,4.0763 -7.33732,3.42408 -7.82651,2.11968 -6.0329,4.23934 -6.52208,3.26104 c 0,0 -4.07631,3.58712 -5.7068,4.23934 -1.63052,0.6522 -15.16383,1.95662 -15.81602,1.95662 -0.65223,0 -20.38149,-1.14136 -20.38149,-1.14136 l -19.07707,-0.16306 -52.82877,-1.14136 -22.01199,-1.63052 -19.56622,-2.93492 -11.41363,-8.15261 -16.46822,-5.70679 -9.94616,-3.75021 -10.59836,-2.44578 z"
           id="path195908"
           sodipodi:nodetypes="ccccccccccccccccccccccccccccccccccccccccccccccccccccccccccccccccccccccccccccccccccccccccccccccccccccccscccccccccccccccccccccccsccccccccccccccccccccccccccccccccccccccccccccccccccccccsccscccccccccccccccccccccscccccccccccccccccccccccccccccccccccccccccsscccccccccc" />
      </g>
      <g
         id="g195945">
        <path
           style="fill:#008080;fill-opacity:1;stroke:none;stroke-width:1.202;stroke-linejoin:round"
           id="path195912"
           width="102.20671"
           height="145.97462"
           x="200.41722"
           y="-363.38101"
           ry="4.5654564"
           rx="4.5654411"
           clip-path="url(#clipath_lpe_path-effect195916)"
           transform="translate(-867.64101,-202.72226)"
           sodipodi:type="rect"
           inkscape:path-effect="#path-effect195916" />
      </g>
      <path
         style="fill:#b7c8be;fill-opacity:1;stroke:none;stroke-width:0.178044px;stroke-linecap:butt;stroke-linejoin:miter;stroke-opacity:1"
         d="m -648.31768,-448.06829 c 6.58331,0.65833 11.84995,2.41387 11.30134,-0.43889 -0.54862,-2.85275 4.93746,-3.0722 4.93746,-3.0722 0,0 15.79993,-3.40137 5.26663,-3.73054 -10.53327,-0.32917 -16.56795,1.97499 -17.336,-1.64582 -0.76807,-3.62081 -5.5958,-2.41388 -7.13192,-2.74305 -1.5361,-0.32915 -10.69315,1.34042 -4.71802,2.74305 5.97512,1.40263 11.95966,5.15691 6.14441,4.38886 -5.81525,-0.76805 -10.643,-1.97499 -9.76522,-0.21945 0.87775,1.75556 -2.52361,2.41389 -2.52361,2.41389 0,0 -0.70147,0.12376 -1.10386,0.36415 -1.08668,0.64917 -2.28877,1.91923 0.99415,2.15945 4.49858,0.32917 6.80273,-1.20694 9.32634,-0.87778 2.52359,0.32917 4.6083,0.65833 4.6083,0.65833 z"
         id="path195918"
         sodipodi:nodetypes="cscsssssscsssc" />
      <path
         style="fill:#e6e6e6;fill-opacity:1;stroke:#e6e6e6;stroke-width:0.245995px;stroke-linecap:butt;stroke-linejoin:miter;stroke-opacity:1"
         d="m -629.04798,-448.34519 15.23462,-13.57879 20.78303,17.8666 26.05756,-1.81363 -14.4862,-13.65979 -32.15286,-4.67931 z"
         id="path195920"
         sodipodi:nodetypes="ccccccc" />
      <path
         style="fill:#008080;fill-opacity:1;stroke:#008080;stroke-width:0.264583px;stroke-linecap:butt;stroke-linejoin:miter;stroke-opacity:1"
         d="m -737.70746,-972.3186 4.56545,-4.60624 1.46747,-0.36686 2.50691,-2.16044 v -1.63052 l -0.83962,-0.97013 -1.2696,0.23743 -0.90724,1.22186 -0.89678,0.48916 -0.81526,1.30443 0.16306,1.71203 -3.92454,3.99783 0.69178,-4.90003 1.0953,-3.6318 0.92236,-1.26826 0.46119,-1.44118 2.59413,-1.8159 1.29708,-1.84473 0.50065,-1.20122 -0.77772,-1.57996 -1.65413,-1.28297 0.14621,-1.36834 -0.5874,-0.90875 -1.44135,-0.23551 -0.99978,1.01379 -0.92236,-1.84473 -1.41237,-0.80707 -1.14396,0.2682 -1.16193,0.91358 -0.37472,1.35472 -0.74943,0.98001 0.21431,0.98868 -1.05019,0.22191 -1.52767,1.67178 0.17296,1.32588 h 1.32588 l 1.44119,0.34589 0.86471,0.69178 h 1.84473 l 1.72942,1.84471 -1.88057,-1.39926 -1.86315,0.0257 -0.9083,-0.74165 -1.26245,-0.31516 -1.00322,0.009 -0.4612,0.51882 -0.92233,0.0576 -0.69178,0.63413 -0.11531,1.0953 -0.51882,0.7494 0.57647,1.49884 1.15295,0.34589 h 1.67177 l 0.80709,-0.51882 -0.17296,0.80706 -0.57648,0.46117 0.40355,0.80708 -0.25069,0.31221 -0.53458,-0.98194 -0.45716,-0.36058 -0.99034,-0.1086 -1.32137,-0.39136 -0.42356,-0.42976 -0.74554,0.2582 0.28438,1.12536 -0.89233,0.66221 -0.31828,1.29779 0.74944,0.98002 h 1.21057 l 0.80709,0.86471 -0.11531,1.44119 -0.28754,-1.29696 -0.64332,-0.46515 -1.49034,0.0903 -1.8447,0.46117 -0.4612,0.92236 -0.57647,1.55649 0.40354,1.21058 1.2106,0.34589 1.61412,-0.17294 1.44118,-0.28823 1.84473,0.17293 0.98002,0.51882 0.69175,0.51885 1.55649,2.36355 1.61412,1.67177 c 0.15138,7.29531 -0.31038,14.5682 -0.69172,21.84842 l 1.32588,-0.11531 c -0.19682,-7.35439 -0.12558,-14.69033 0.18923,-22.03579 l 0.79549,-0.55795 0.14873,-0.90657 -0.69539,-0.73868 z"
         id="path195922"
         sodipodi:nodetypes="ccccccccccccccccccccccccccccccccccccccccccccccccccccccccccccccccccccccccccccccccccccccccccccc"
         clip-path="url(#clipath_lpe_path-effect195926)"
         inkscape:path-effect="#path-effect195926"
         inkscape:original-d="m -737.70746,-972.3186 4.56545,-4.60624 1.46747,-0.36686 2.50691,-2.16044 v -1.63052 l -0.83962,-0.97013 -1.2696,0.23743 -0.90724,1.22186 -0.89678,0.48916 -0.81526,1.30443 0.16306,1.71203 -3.92454,3.99783 0.69178,-4.90003 1.0953,-3.6318 0.92236,-1.26826 0.46119,-1.44118 2.59413,-1.8159 1.29708,-1.84473 0.50065,-1.20122 -0.77772,-1.57996 -1.65413,-1.28297 0.14621,-1.36834 -0.5874,-0.90875 -1.44135,-0.23551 -0.99978,1.01379 -0.92236,-1.84473 -1.41237,-0.80707 -1.14396,0.2682 -1.16193,0.91358 -0.37472,1.35472 -0.74943,0.98001 0.21431,0.98868 -1.05019,0.22191 -1.52767,1.67178 0.17296,1.32588 h 1.32588 l 1.44119,0.34589 0.86471,0.69178 h 1.84473 l 1.72942,1.84471 -1.88057,-1.39926 -1.86315,0.0257 -0.9083,-0.74165 -1.26245,-0.31516 -1.00322,0.009 -0.4612,0.51882 -0.92233,0.0576 -0.69178,0.63413 -0.11531,1.0953 -0.51882,0.7494 0.57647,1.49884 1.15295,0.34589 h 1.67177 l 0.80709,-0.51882 -0.17296,0.80706 -0.57648,0.46117 0.40355,0.80708 -0.25069,0.31221 -0.53458,-0.98194 -0.45716,-0.36058 -0.99034,-0.1086 -1.32137,-0.39136 -0.42356,-0.42976 -0.74554,0.2582 0.28438,1.12536 -0.89233,0.66221 -0.31828,1.29779 0.74944,0.98002 h 1.21057 l 0.80709,0.86471 -0.11531,1.44119 -0.28754,-1.29696 -0.64332,-0.46515 -1.49034,0.0903 -1.8447,0.46117 -0.4612,0.92236 -0.57647,1.55649 0.40354,1.21058 1.2106,0.34589 1.61412,-0.17294 1.44118,-0.28823 1.84473,0.17293 0.98002,0.51882 0.69175,0.51885 1.55649,2.36355 1.61412,1.67177 c 0.15138,7.29531 -0.31038,14.5682 -0.69172,21.84842 l 1.32588,-0.11531 c -0.19682,-7.35439 -0.12558,-14.69033 0.18923,-22.03579 l 0.79549,-0.55795 0.14873,-0.90657 -0.69539,-0.73868 z"
         transform="matrix(2.1375488,0,0,2.1375488,942.57208,1585.4072)" />
    </g>
    <g
       id="g294731"
       transform="translate(754.36082,543.84576)"
       inkscape:export-filename="C:\Users\camid\Desktop\Ecuador\logo\logo_bn.png"
       inkscape:export-xdpi="96"
       inkscape:export-ydpi="96">
      <rect
         style="fill:#e6e6e6;fill-opacity:1;stroke:none;stroke-width:1.37386;stroke-linejoin:round"
         id="rect294709"
         width="116.81965"
         height="166.84526"
         x="-674.53027"
         y="-576.53857"
         ry="5.2181997"
         rx="5.2181821" />
      <rect
         style="fill:#b3b3b3;fill-opacity:1;stroke:none;stroke-width:1.202;stroke-linejoin:round"
         id="rect294711"
         width="102.20671"
         height="145.97462"
         x="200.41722"
         y="-363.38101"
         ry="4.5654564"
         rx="4.5654411"
         clip-path="url(#clipPath6028)"
         transform="translate(-867.64101,-202.72226)" />
      <rect
         style="fill:#e6e6e6;fill-opacity:1;stroke:none;stroke-width:1.202;stroke-linejoin:round"
         id="rect294713"
         width="102.20671"
         height="145.97462"
         x="-178.51517"
         y="-350.98907"
         ry="4.5654564"
         rx="4.5654411"
         clip-path="url(#clipPath28857)"
         transform="translate(-488.70862,-215.1142)" />
      <path
         style="fill:#cccccc;fill-opacity:1;stroke:none;stroke-width:0.0895072px;stroke-linecap:butt;stroke-linejoin:miter;stroke-opacity:1"
         d="m -567.56095,-471.62556 -0.79161,-5.97257 -2.40291,-3.10674 0.068,-1.8811 0.45793,-3.62758 -15.43329,-3.66749 -6.40754,2.0188 -14.98298,-1.55717 -5.98503,0.58641 -11.12996,3.21242 -3.82183,1.99086 -1.08677,3.79688 -1.40107,4.33765 -2.07633,2.57811 -2.27891,3.08456 3.13924,8.79896 8.37044,4.40871 14.33108,-0.63914 37.45494,-10.22212 z"
         id="path294715"
         sodipodi:nodetypes="cccccccccccccccccccc" />
      <path
         style="fill:#333333;fill-opacity:1;stroke:none;stroke-width:0.0895072px;stroke-linecap:butt;stroke-linejoin:miter;stroke-opacity:1"
         d="m -666.71971,-463.25771 11.09142,-2.47147 13.9013,-4.85108 7.34505,-2.37407 5.28987,-2.70395 -0.57794,3.01026 2.69892,0.59903 -0.11899,5.16837 1.14485,3.04989 4.44028,-1.39541 2.56962,0.99872 2.41648,3.35468 0.79034,-3.33737 -0.54984,-4.65393 2.33613,1.01453 2.067,1.65826 1.32987,-3.4521 -0.19508,-2.87969 1.45113,-1.66203 1.09236,-2.3414 -1.3349,-1.23876 -0.3176,-5.84245 1.16618,-1.25181 -0.22672,-3.34667 -0.76648,1.38112 -2.18726,2.33739 -2.07502,0.53152 -0.8034,0.83629 -1.73333,-0.19534 -0.41677,-1.53549 -0.76372,-0.88651 -1.89301,0.91011 -1.3944,1.34546 -0.13733,2.58943 0.0949,1.40095 -1.4298,-2.63968 -0.37585,-2.08556 -1.35473,-0.37736 -0.64372,-0.26912 -0.71904,2.08154 0.0118,1.32836 -0.22042,2.51691 0.0171,1.40622 -0.002,3.44028 -0.68589,-0.89178 -0.1027,-3.82417 -0.42204,-1.61332 -0.6608,-1.67534 -0.41676,-1.5355 0.31006,-1.19378 0.33114,-0.88249 1.64898,-1.04995 0.36679,-1.51039 0.75067,-1.61458 1.34293,-0.95102 1.91937,-0.52095 2.31378,-0.4695 0.89303,0.4868 1.33766,-1.02883 2.84277,-0.73991 2.35597,0.15315 1.22016,0.69921 1.62914,-0.18856 2.64092,-0.25709 1.76899,-0.43257 2.06046,0.40771 2.65272,1.07127 2.01955,0.9578 1.74262,-0.82172 0.29424,-1.42732 0.533,-1.36526 0.48681,-0.89303 0.47878,1.29675 0.91938,0.87593 0.62917,1.20838 0.47752,0.12403 0.66355,-0.59228 0.10821,-0.711 0.32651,-0.37394 0.0772,-0.59166 0.43534,-0.49859 0.35023,-0.0237 0.32324,-0.99923 0.37333,-0.25983 0.42743,-0.61538 0.51442,0.66882 0.34497,-0.10155 0.21628,0.88449 0.33505,0.32916 0.61673,-0.70636 0.58108,-0.0785 0.34295,0.44587 0.9986,-0.26312 0.31458,0.6042 0.53427,-0.19257 0.73272,1.00586 0.59891,-0.3924 0.38977,0.55999 0.68528,0.30543 0.78946,0.68929 0.71165,0.69456 0.55007,0.0409 c 0,0 0.14574,0.42014 0.1642,0.69255 0.0184,0.27242 0.0996,0.89241 0.0996,0.89241 l 0.66154,-0.0448 -0.44789,0.8904 0.18992,0.49533 0.92078,-0.25785 0.68992,-0.20312 1.02885,1.33768 0.84558,-0.21366 1.37581,0.68866 1.6766,0.5119 0.76774,-0.20839 1.48002,1.07255 c 0.11118,0.1431 0.22236,0.28621 0.33355,0.42931 l -0.15842,0.4209 -0.27214,0.74085 -0.0614,0.68708 -0.29952,1.34944 -0.068,1.8811 -0.24285,-2.96345 c -0.46842,-0.40544 -0.51125,-2.95025 -0.6488,1.34284 l 0.0377,-1.17536 0.005,-0.50852 -0.60681,0.27568 c 0,0 -0.5079,0.5817 -0.57518,0.74264 -0.0673,0.16094 -0.67611,0.98405 -0.67611,0.98405 l 0.21893,0.92341 0.83039,0.13918 0.20047,0.651 -0.25068,0.91613 -0.16759,0.98869 0.0527,0.7783 0.53878,1.60541 0.72392,0.63022 0.77884,0.87228 0.23836,1.11608 -0.21703,0.83566 1.10675,-1.05064 0.84788,0.27427 0.92439,-0.22847 1.52034,1.22387 1.01103,1.86652 -3.00731,1.30945 -3.42522,1.66948 -7.64699,3.00592 -0.82472,-1.52469 0.26894,-1.95439 1.20055,-0.87692 -0.14825,-1.37211 1.1763,-1.40656 1.38329,0.0169 0.8619,-0.33482 0.20806,-1.00924 1.41969,-0.26203 -0.40193,-1.85252 -0.23666,-5.12557 -0.28812,-1.80492 0.44594,-1.57823 -0.0671,-0.9906 -1.07174,-0.31441 -1.24712,0.36093 -1.19955,0.24714 1.14578,11.20073 -0.68277,-0.28547 -1.11313,-11.53468 -1.38986,0.70231 -1.85338,-0.4273 -0.84042,-0.16421 -0.722,0.76761 -0.99895,-0.8722 -1.0073,-1.81147 -1.47188,-0.50844 -1.39732,0.59225 -0.25847,1.89721 -0.89829,0.61375 -0.45057,0.69395 0.24589,6.89411 -0.38807,0.80029 -0.31584,-7.11052 c 0,0 -0.009,-1.76855 -0.0242,-1.98868 -0.0149,-0.2201 -0.54093,-1.45608 -0.54093,-1.45608 l -1.7751,0.72841 c 0,0 -1.80491,0.28815 -2.08381,0.25174 -0.2789,-0.0364 -2.65279,0.0139 -2.65279,0.0139 l -0.88055,0.0597 0.14913,2.20132 -0.21746,2.50263 -0.54643,-3.16957 0.14378,-2.77405 -1.45324,-0.23327 -1.21447,0.027 -1.91126,0.35062 -2.00641,0.57821 -1.25743,1.02505 -0.65027,2.64249 0.16954,4.13498 0.7639,0.66698 0.69485,1.27981 1.17808,0.25191 0.52707,-1.19672 1.14168,0.53078 1.1044,-0.0195 0.16705,-1.61461 1.05594,-0.73496 c 0,0 0.68933,-0.43371 0.72945,-0.65757 0.0401,-0.22386 0.32559,-0.90663 0.32559,-0.90663 l 0.98314,-0.17717 1.23773,1.13243 1.17897,1.08115 2.22832,1.06532 1.49514,1.66788 -0.54944,0.86653 -2.2601,0.0978 -1.2285,0.63608 0.22191,1.64357 2.27113,3.32918 2.10618,0.0785 1.83013,-0.73213 1.95138,-0.57448 1.73498,-0.50454 1.13707,-0.35346 0.28085,-1.56704 -0.207,-1.42341 0.51677,-0.5326 0.74065,-0.49246 0.64086,-1.14916 0.17914,-0.62026 0.83295,0.0541 0.43744,0.74436 0.50648,0.13156 0.86189,-0.33483 1.35063,0.35079 0.7387,1.11097 -0.57093,1.36556 -0.48695,0.97285 0.41222,1.18837 -0.028,1.21819 0.13332,1.15197 -0.9748,1.11648 -0.0859,1.99612 0.34601,1.027 -3.53901,1.6219 -2.39822,1.32347 -2.59315,0.8944 -1.9393,1.56881 -2.12678,1.2498 c 0,0 -1.29383,1.30394 -1.82924,1.56136 -0.53542,0.25741 -5.07339,1.00712 -5.29351,1.02204 -0.22015,0.0149 -6.9053,0.0808 -6.9053,0.0808 l -6.44266,0.38116 -17.85696,0.82271 -7.46681,-0.047 -6.67114,-0.54322 -4.03876,-2.49071 -5.68887,-1.54961 -3.4428,-1.03836 -3.6331,-0.58317 z"
         id="path294717"
         sodipodi:nodetypes="ccccccccccccccccccccccccccccccccccccccccccccccccccccccccccccccccccccccccccccccccccccccccccccccccccccccscccccccccccccccccccccccsccccccccccccccccccccccccccccccccccccccccccccccccccccccsccscccccccccccccccccccccscccccccccccccccccccccccccccccccccccccccccsscccccccccc" />
      <g
         id="g294723"
         style="fill:#333333"
         transform="translate(72.14102,-10.77091)">
        <path
           style="fill:#333333;fill-opacity:1;stroke:none;stroke-width:1.202;stroke-linejoin:round"
           id="path294721"
           width="102.20671"
           height="145.97462"
           x="200.41722"
           y="-363.38101"
           ry="4.5654564"
           rx="4.5654411"
           clip-path="url(#clipath_lpe_path-effect294735)"
           transform="translate(-939.78203,-191.95135)"
           sodipodi:type="rect"
           inkscape:path-effect="#path-effect294735" />
      </g>
      <path
         style="fill:#cccccc;fill-opacity:1;stroke:none;stroke-width:0.178044px;stroke-linecap:butt;stroke-linejoin:miter;stroke-opacity:1"
         d="m -648.31768,-448.06829 c 6.58331,0.65833 11.84995,2.41387 11.30134,-0.43889 -0.54862,-2.85275 4.93746,-3.0722 4.93746,-3.0722 0,0 15.79993,-3.40137 5.26663,-3.73054 -10.53327,-0.32917 -16.56795,1.97499 -17.336,-1.64582 -0.76807,-3.62081 -5.5958,-2.41388 -7.13192,-2.74305 -1.5361,-0.32915 -10.69315,1.34042 -4.71802,2.74305 5.97512,1.40263 11.95966,5.15691 6.14441,4.38886 -5.81525,-0.76805 -10.643,-1.97499 -9.76522,-0.21945 0.87775,1.75556 -2.52361,2.41389 -2.52361,2.41389 0,0 -0.70147,0.12376 -1.10386,0.36415 -1.08668,0.64917 -2.28877,1.91923 0.99415,2.15945 4.49858,0.32917 6.80273,-1.20694 9.32634,-0.87778 2.52359,0.32917 4.6083,0.65833 4.6083,0.65833 z"
         id="path294725"
         sodipodi:nodetypes="cscsssssscsssc" />
      <path
         style="fill:#e6e6e6;fill-opacity:1;stroke:#e6e6e6;stroke-width:0.245995px;stroke-linecap:butt;stroke-linejoin:miter;stroke-opacity:1"
         d="m -629.04798,-448.34519 15.23462,-13.57879 20.78303,17.8666 26.05756,-1.81363 -14.4862,-13.65979 -32.15286,-4.67931 z"
         id="path294727"
         sodipodi:nodetypes="ccccccc" />
      <path
         style="fill:#333333;fill-opacity:1;stroke:#333333;stroke-width:0.264583px;stroke-linecap:butt;stroke-linejoin:miter;stroke-opacity:1"
         d="m -737.70746,-972.3186 4.56545,-4.60624 1.46747,-0.36686 2.50691,-2.16044 v -1.63052 l -0.83962,-0.97013 -1.2696,0.23743 -0.90724,1.22186 -0.89678,0.48916 -0.81526,1.30443 0.16306,1.71203 -3.92454,3.99783 0.69178,-4.90003 1.0953,-3.6318 0.92236,-1.26826 0.46119,-1.44118 2.59413,-1.8159 1.29708,-1.84473 0.50065,-1.20122 -0.77772,-1.57996 -1.65413,-1.28297 0.14621,-1.36834 -0.5874,-0.90875 -1.44135,-0.23551 -0.99978,1.01379 -0.92236,-1.84473 -1.41237,-0.80707 -1.14396,0.2682 -1.16193,0.91358 -0.37472,1.35472 -0.74943,0.98001 0.21431,0.98868 -1.05019,0.22191 -1.52767,1.67178 0.17296,1.32588 h 1.32588 l 1.44119,0.34589 0.86471,0.69178 h 1.84473 l 1.72942,1.84471 -1.88057,-1.39926 -1.86315,0.0257 -0.9083,-0.74165 -1.26245,-0.31516 -1.00322,0.009 -0.4612,0.51882 -0.92233,0.0576 -0.69178,0.63413 -0.11531,1.0953 -0.51882,0.7494 0.57647,1.49884 1.15295,0.34589 h 1.67177 l 0.80709,-0.51882 -0.17296,0.80706 -0.57648,0.46117 0.40355,0.80708 -0.25069,0.31221 -0.53458,-0.98194 -0.45716,-0.36058 -0.99034,-0.1086 -1.32137,-0.39136 -0.42356,-0.42976 -0.74554,0.2582 0.28438,1.12536 -0.89233,0.66221 -0.31828,1.29779 0.74944,0.98002 h 1.21057 l 0.80709,0.86471 -0.11531,1.44119 -0.28754,-1.29696 -0.64332,-0.46515 -1.49034,0.0903 -1.8447,0.46117 -0.4612,0.92236 -0.57647,1.55649 0.40354,1.21058 1.2106,0.34589 1.61412,-0.17294 1.44118,-0.28823 1.84473,0.17293 0.98002,0.51882 0.69175,0.51885 1.55649,2.36355 1.61412,1.67177 c 0.15138,7.29531 -0.31038,14.5682 -0.69172,21.84842 l 1.32588,-0.11531 c -0.19682,-7.35439 -0.12558,-14.69033 0.18923,-22.03579 l 0.79549,-0.55795 0.14873,-0.90657 -0.69539,-0.73868 z"
         id="path294729"
         sodipodi:nodetypes="ccccccccccccccccccccccccccccccccccccccccccccccccccccccccccccccccccccccccccccccccccccccccccccc"
         clip-path="url(#clipath_lpe_path-effect294739)"
         inkscape:path-effect="#path-effect294739"
         inkscape:original-d="m -737.70746,-972.3186 4.56545,-4.60624 1.46747,-0.36686 2.50691,-2.16044 v -1.63052 l -0.83962,-0.97013 -1.2696,0.23743 -0.90724,1.22186 -0.89678,0.48916 -0.81526,1.30443 0.16306,1.71203 -3.92454,3.99783 0.69178,-4.90003 1.0953,-3.6318 0.92236,-1.26826 0.46119,-1.44118 2.59413,-1.8159 1.29708,-1.84473 0.50065,-1.20122 -0.77772,-1.57996 -1.65413,-1.28297 0.14621,-1.36834 -0.5874,-0.90875 -1.44135,-0.23551 -0.99978,1.01379 -0.92236,-1.84473 -1.41237,-0.80707 -1.14396,0.2682 -1.16193,0.91358 -0.37472,1.35472 -0.74943,0.98001 0.21431,0.98868 -1.05019,0.22191 -1.52767,1.67178 0.17296,1.32588 h 1.32588 l 1.44119,0.34589 0.86471,0.69178 h 1.84473 l 1.72942,1.84471 -1.88057,-1.39926 -1.86315,0.0257 -0.9083,-0.74165 -1.26245,-0.31516 -1.00322,0.009 -0.4612,0.51882 -0.92233,0.0576 -0.69178,0.63413 -0.11531,1.0953 -0.51882,0.7494 0.57647,1.49884 1.15295,0.34589 h 1.67177 l 0.80709,-0.51882 -0.17296,0.80706 -0.57648,0.46117 0.40355,0.80708 -0.25069,0.31221 -0.53458,-0.98194 -0.45716,-0.36058 -0.99034,-0.1086 -1.32137,-0.39136 -0.42356,-0.42976 -0.74554,0.2582 0.28438,1.12536 -0.89233,0.66221 -0.31828,1.29779 0.74944,0.98002 h 1.21057 l 0.80709,0.86471 -0.11531,1.44119 -0.28754,-1.29696 -0.64332,-0.46515 -1.49034,0.0903 -1.8447,0.46117 -0.4612,0.92236 -0.57647,1.55649 0.40354,1.21058 1.2106,0.34589 1.61412,-0.17294 1.44118,-0.28823 1.84473,0.17293 0.98002,0.51882 0.69175,0.51885 1.55649,2.36355 1.61412,1.67177 c 0.15138,7.29531 -0.31038,14.5682 -0.69172,21.84842 l 1.32588,-0.11531 c -0.19682,-7.35439 -0.12558,-14.69033 0.18923,-22.03579 l 0.79549,-0.55795 0.14873,-0.90657 -0.69539,-0.73868 z"
         transform="matrix(2.1375488,0,0,2.1375488,942.57208,1585.4072)" />
    </g>
  </g>
</svg>
